<svg xmlns="http://www.w3.org/2000/svg" viewBox="0 0 339.85 119.508"><title>election_2016</title><path d="M14.208,79.38H25.2v2.976H0V79.38H10.9V73.86h3.312v5.52Zm-1.632,21.6a13.382,13.382,0,0,1-4.152-.6,10.505,10.505,0,0,1-3.168-1.608A7.075,7.075,0,0,1,3.24,96.444a5.93,5.93,0,0,1-.7-2.808V91.908a5.933,5.933,0,0,1,.7-2.808,7.087,7.087,0,0,1,2.016-2.328,10.539,10.539,0,0,1,3.168-1.608,13.411,13.411,0,0,1,4.152-.6,13.415,13.415,0,0,1,4.152.6A10.551,10.551,0,0,1,19.9,86.772,7.105,7.105,0,0,1,21.912,89.1a5.944,5.944,0,0,1,.7,2.808v1.728a5.941,5.941,0,0,1-.7,2.808A7.094,7.094,0,0,1,19.9,98.772a10.517,10.517,0,0,1-3.168,1.608A13.386,13.386,0,0,1,12.576,100.98Zm0-13.584a10.018,10.018,0,0,0-2.784.36,6.761,6.761,0,0,0-2.136,1.008,5.091,5.091,0,0,0-1.392,1.488,3.444,3.444,0,0,0-.5,1.8v1.44a3.437,3.437,0,0,0,.5,1.8A5.08,5.08,0,0,0,7.656,96.78a6.771,6.771,0,0,0,2.136,1.008,10.018,10.018,0,0,0,2.784.36,10.1,10.1,0,0,0,2.76-.36A6.762,6.762,0,0,0,17.5,96.78a5.1,5.1,0,0,0,1.392-1.488,3.436,3.436,0,0,0,.5-1.8v-1.44a3.443,3.443,0,0,0-.5-1.8A5.106,5.106,0,0,0,17.5,88.764a6.752,6.752,0,0,0-2.16-1.008A10.1,10.1,0,0,0,12.576,87.4ZM6.48,104.34H33.936v14.4H30.624V107.316H6.48V104.34ZM33.936,86.484H40.7V89.46H33.936v12.288H30.624V74.484h3.312v12Z" fill="#222"/><path d="M60.413,98.1q-1.393-1.152-2.784-2.448t-2.5-2.4q-2.668-2.592-2.905-3.408H52.18a4.646,4.646,0,0,1-.662,1.224A18.477,18.477,0,0,1,49.9,93.06q-0.576.625-1.416,1.464t-1.776,1.728q-0.936.889-1.9,1.752t-1.728,1.488l-2.16-2.256q0.816-.672,1.752-1.488T44.5,94.092q0.888-.839,1.728-1.7T47.692,90.8a16.93,16.93,0,0,0,1.416-1.872,8.511,8.511,0,0,0,.864-1.752,8.027,8.027,0,0,0,.408-1.9q0.1-1.008.1-2.4V76.74h3.312v6.1q0,1.345.1,2.328a8.414,8.414,0,0,0,.384,1.848,6.456,6.456,0,0,0,.84,1.656,15.727,15.727,0,0,0,1.512,1.8q1.1,1.152,2.64,2.592t3.264,2.832Zm4.656,21.408a23.3,23.3,0,0,1-5.136-.552,16.371,16.371,0,0,1-4.32-1.584,9.107,9.107,0,0,1-2.976-2.52,5.5,5.5,0,0,1-1.1-3.36v-1.728a5.57,5.57,0,0,1,1.1-3.408,9.112,9.112,0,0,1,2.976-2.52,15.826,15.826,0,0,1,4.32-1.56,24.294,24.294,0,0,1,5.136-.528,23.312,23.312,0,0,1,5.136.552,16.374,16.374,0,0,1,4.32,1.584A9.112,9.112,0,0,1,77.5,106.4a5.5,5.5,0,0,1,1.1,3.36v1.728a5.5,5.5,0,0,1-1.1,3.36,9.112,9.112,0,0,1-2.976,2.52,16.374,16.374,0,0,1-4.32,1.584A23.312,23.312,0,0,1,65.068,119.508Zm0.024-14.88a20.965,20.965,0,0,0-3.76.336,13.405,13.405,0,0,0-3.28,1.008,7.154,7.154,0,0,0-2.322,1.656,3.3,3.3,0,0,0-.886,2.28v1.44a3.3,3.3,0,0,0,.886,2.28,7.155,7.155,0,0,0,2.322,1.656,13.405,13.405,0,0,0,3.28,1.008,21.2,21.2,0,0,0,7.519,0,13.405,13.405,0,0,0,3.28-1.008,7.162,7.162,0,0,0,2.323-1.656,3.305,3.305,0,0,0,.886-2.28v-1.44a3.306,3.306,0,0,0-.886-2.28,7.161,7.161,0,0,0-2.323-1.656,13.405,13.405,0,0,0-3.28-1.008A20.964,20.964,0,0,0,65.092,104.628Zm3.528-19.344h6.432v-10.8h3.312v26.3H75.052V88.26H68.621v10.8H65.309V75.108h3.312V85.284Z" fill="#222"/><path d="M114.181,108.9q-2.977.289-5.88,0.5t-6.288.36q-3.384.144-7.536,0.192T84.805,110v-2.976h6.744q3.1,0,5.832-.1V101.46a13.864,13.864,0,0,1-3.7-.84,10.066,10.066,0,0,1-2.88-1.656,7.511,7.511,0,0,1-1.848-2.232,5.412,5.412,0,0,1-.648-2.568V92.34a5.536,5.536,0,0,1,.768-2.784A7.612,7.612,0,0,1,91.213,87.2,11.025,11.025,0,0,1,94.525,85.6a15.421,15.421,0,0,1,8.52,0,11.077,11.077,0,0,1,3.288,1.608,7.622,7.622,0,0,1,2.136,2.352,5.541,5.541,0,0,1,.768,2.784v1.824a5.513,5.513,0,0,1-.6,2.5,7.025,7.025,0,0,1-1.7,2.16,10.621,10.621,0,0,1-2.664,1.656,12.2,12.2,0,0,1-3.48.936v5.424q3.792-.1,6.936-0.312t6.168-.552ZM100.357,79.572h10.848v2.976h-25.3V79.572H97.045V74.1h3.312v5.472Zm-1.584,8.3a10.409,10.409,0,0,0-3.024.408,7.735,7.735,0,0,0-2.28,1.08,5.27,5.27,0,0,0-1.44,1.488,3.159,3.159,0,0,0-.5,1.68v1.44a3.278,3.278,0,0,0,.5,1.7,5.124,5.124,0,0,0,1.44,1.512,7.7,7.7,0,0,0,2.28,1.08,11.4,11.4,0,0,0,6.048,0,7.707,7.707,0,0,0,2.28-1.08,5.124,5.124,0,0,0,1.44-1.512,3.274,3.274,0,0,0,.5-1.7v-1.44a3.156,3.156,0,0,0-.5-1.68,5.27,5.27,0,0,0-1.44-1.488,7.744,7.744,0,0,0-2.28-1.08A10.418,10.418,0,0,0,98.773,87.876Zm21.84,30.48h-3.408V74.484h3.408v43.872Z" fill="#222"/><path d="M152.676,90.228a3.834,3.834,0,0,1-1.128,1.7q-1.033,1.08-2.616,2.616-1.249,1.2-3.192,2.856t-3.96,3.24L139.668,98.2q1.968-1.44,4.056-3.192t3.72-3.384a19.655,19.655,0,0,0,1.8-2.016,8.312,8.312,0,0,0,1.008-1.7,6.1,6.1,0,0,0,.456-1.824q0.1-.984.1-2.328v-7.2h3.456v7.1a22.714,22.714,0,0,0,.1,2.28,5.762,5.762,0,0,0,.456,1.752,7.128,7.128,0,0,0,1.056,1.656,17.4,17.4,0,0,0,1.9,1.9q1.775,1.537,3.6,3t3.408,2.616L162.756,99.2q-1.92-1.44-3.48-2.712t-2.808-2.328q-3.409-2.88-3.744-3.936h-0.048Zm-0.528,24.624h24.528v2.976H148.741v-14.64h3.408v11.664Zm23.376-9.072h-3.312V87.924h-9.888V84.948h9.888V74.484h3.312v31.3Z" fill="#222"/><path d="M182.512,105.588q3.647-2.063,6.288-3.744t4.465-3.1a20.965,20.965,0,0,0,2.951-2.712,10.232,10.232,0,0,0,2.544-5.472,23.076,23.076,0,0,0,.217-3.312v-5.52H182.945V78.66h19.344V87.2q0,1.681-.144,3.12h11.472V74.484h3.312v43.872h-3.312V93.4h-12.1a12.167,12.167,0,0,1-1.752,3.456,19.793,19.793,0,0,1-3.192,3.36,48.25,48.25,0,0,1-5.04,3.7q-3.023,1.969-7.3,4.416Z" fill="#222"/><path d="M251.249,95.076q1.44-1.679,2.3-2.88a15.087,15.087,0,0,0,1.32-2.136A8.1,8.1,0,0,0,255.5,88.4a6.157,6.157,0,0,0,.168-1.392V86.628a5.21,5.21,0,0,0-1.7-4.1,7.109,7.109,0,0,0-4.872-1.512,8.86,8.86,0,0,0-4.32,1.1,10.1,10.1,0,0,0-3.7,4.128l-2.688-1.68a19.079,19.079,0,0,1,1.536-2.28,11.228,11.228,0,0,1,2.208-2.136,11.871,11.871,0,0,1,3-1.584,11.2,11.2,0,0,1,3.864-.624,13.166,13.166,0,0,1,4.176.624,9.2,9.2,0,0,1,3.168,1.752,7.806,7.806,0,0,1,2.016,2.736,8.53,8.53,0,0,1,.721,3.528v0.48a7.888,7.888,0,0,1-.48,2.712,13.249,13.249,0,0,1-1.271,2.568,22.681,22.681,0,0,1-1.849,2.5q-1.056,1.249-2.16,2.544L242.56,110h17.761v3.072H238.336V110.2Z" fill="#222"/><path d="M288.342,98.456q0,7.334-2.784,11.241t-9.024,3.907q-6.144,0-8.928-3.931t-2.784-11.217V93.088q0-7.239,2.832-11.169t8.88-3.931q6.144,0,8.977,3.907t2.832,11.193v5.369Zm-3.456-5.425q0-6.442-2.088-9.255a7.3,7.3,0,0,0-6.265-2.812,7.2,7.2,0,0,0-6.119,2.836q-2.137,2.837-2.137,9.231v5.481q0,6.443,2.137,9.279a7.2,7.2,0,0,0,6.119,2.836,7.314,7.314,0,0,0,6.24-2.812q2.112-2.812,2.112-9.3V93.031Z" fill="#222"/><path d="M303.995,113.076V82.692l-8.352,5.088-1.536-2.688L304.8,78.468h2.508v34.608h-3.312Z" fill="#222"/><path d="M336.826,83.028a15.7,15.7,0,0,0-3.479-1.512,13.445,13.445,0,0,0-3.864-.552,8.077,8.077,0,0,0-4.128.979,7.805,7.805,0,0,0-2.784,2.841,15.089,15.089,0,0,0-1.68,4.565,40.419,40.419,0,0,0-.768,6.158,8.059,8.059,0,0,1,1.128-1.632,8.888,8.888,0,0,1,1.823-1.584,9.935,9.935,0,0,1,2.521-1.176,10.8,10.8,0,0,1,3.264-.456,12.241,12.241,0,0,1,4.2.722,10.481,10.481,0,0,1,3.5,2.092,9.94,9.94,0,0,1,2.4,3.368,11.075,11.075,0,0,1,.888,4.545v1.154a11.692,11.692,0,0,1-.864,4.594,10.09,10.09,0,0,1-5.976,5.7,12.879,12.879,0,0,1-4.488.77,12.44,12.44,0,0,1-4.584-.838,9.922,9.922,0,0,1-3.72-2.565,12.253,12.253,0,0,1-2.5-4.386,19.3,19.3,0,0,1-.912-6.255V98.408a43.048,43.048,0,0,1,.888-9.443,18.977,18.977,0,0,1,2.521-6.327,9.775,9.775,0,0,1,3.983-3.547,12.4,12.4,0,0,1,5.328-1.1,17.723,17.723,0,0,1,4.632.614,18.986,18.986,0,0,1,4.248,1.7Zm-16.367,18.887a10.4,10.4,0,0,0,.575,3.563,8.1,8.1,0,0,0,1.633,2.743,7.191,7.191,0,0,0,2.52,1.781,8.162,8.162,0,0,0,3.24.625,9.292,9.292,0,0,0,3.264-.553,7.39,7.39,0,0,0,2.568-1.588,7.1,7.1,0,0,0,1.68-2.551,9.451,9.451,0,0,0,.6-3.491v-0.722a8.4,8.4,0,0,0-.673-3.441,7.759,7.759,0,0,0-1.775-2.552,7.4,7.4,0,0,0-2.568-1.564,8.907,8.907,0,0,0-3.048-.529,7.926,7.926,0,0,0-2.976.578,8.327,8.327,0,0,0-2.545,1.588,8.079,8.079,0,0,0-1.8,2.431,6.854,6.854,0,0,0-.7,3.057v0.625Z" fill="#222"/><path d="M169.925,0a22.824,22.824,0,1,0,22.824,22.824A22.85,22.85,0,0,0,169.925,0ZM187.08,22.824a17.072,17.072,0,0,1-3.226,9.968l-10.913-10.9V5.936A16.794,16.794,0,0,1,187.08,22.824Zm-14.139,7.051,6.91,6.91a15.558,15.558,0,0,1-6.91,2.927V29.876ZM152.7,22.824A16.99,16.99,0,0,1,167.294,5.864v33.92A16.99,16.99,0,0,1,152.7,22.824Z" fill="#e95659"/></svg>