<svg xmlns="http://www.w3.org/2000/svg" viewBox="0 0 400 95.557"><title>logo</title><path d="M10.02,1.166h1.695V5.43a12.309,12.309,0,0,0,1.8,6.769,14.387,14.387,0,0,0,5.06,4.7l-1.351,1.271a20.886,20.886,0,0,1-3.775-3.364,13.241,13.241,0,0,1-2.61-4.609,11.74,11.74,0,0,1-.887,2.331,16.98,16.98,0,0,1-1.417,2.331A18.284,18.284,0,0,1,6.709,17.02a17.321,17.321,0,0,1-2.093,1.815L3,17.669a16.474,16.474,0,0,0,2.795-2.225A14.084,14.084,0,0,0,8.007,12.61,15.08,15.08,0,0,0,9.477,9.1a15.406,15.406,0,0,0,.543-4.2V1.166ZM21.3,0.159H23V23.682H21.3V8.98H15.742V7.523H21.3V0.159Z"/><path d="M37.172,10.093H58.735V11.47H48.749v2.516h6.516a0.432,0.432,0,0,1,.5.5v4.292a0.52,0.52,0,0,1-.119.4,0.569,0.569,0,0,1-.384.106h-13.4v2.781H56.3v1.324H40.669a0.41,0.41,0,0,1-.5-0.5V18.464a0.572,0.572,0,0,1,.106-0.384,0.52,0.52,0,0,1,.4-0.119H54.047V15.338H40.166V13.987H47.08V11.47H37.172V10.093ZM47.927,0a17.311,17.311,0,0,1,3.3.292,10.817,10.817,0,0,1,2.556.794,4.8,4.8,0,0,1,1.656,1.285,2.683,2.683,0,0,1,.6,1.709,2.774,2.774,0,0,1-.6,1.748,4.716,4.716,0,0,1-1.656,1.3,9.37,9.37,0,0,1-2.556.795,18.959,18.959,0,0,1-3.3.265,13.638,13.638,0,0,1-5.881-1.073A3.325,3.325,0,0,1,39.821,4.08a3.322,3.322,0,0,1,2.225-2.994A13.5,13.5,0,0,1,47.927,0Zm0,1.3a14.639,14.639,0,0,0-2.583.212,10.269,10.269,0,0,0-2.026.556,3.719,3.719,0,0,0-1.338.888,1.682,1.682,0,0,0-.463,1.152,1.652,1.652,0,0,0,.463,1.126,3.712,3.712,0,0,0,1.338.887,8.2,8.2,0,0,0,2.026.61,14.639,14.639,0,0,0,2.583.212,14.474,14.474,0,0,0,2.556-.212,8.2,8.2,0,0,0,2.026-.61,4.055,4.055,0,0,0,1.338-.887,1.609,1.609,0,0,0,.49-1.126,1.636,1.636,0,0,0-.49-1.152,4.064,4.064,0,0,0-1.338-.888,10.269,10.269,0,0,0-2.026-.556A14.474,14.474,0,0,0,47.927,1.3Z"/><path d="M73.464,1.8h7.55v1.4H74.6V16l3.258-.079q0.477,0,1.179-.053t1.417-.133q0.715-.053,1.351-0.132t1.033-.159v1.51q-0.344.054-.94,0.133t-1.338.133q-0.715.079-1.5,0.133t-1.444.079q-0.874.053-1.6,0.066t-1.285.013q-0.556.027-.9,0.013l-0.371-.013a0.518,0.518,0,0,1-.4-0.12,0.566,0.566,0,0,1-.106-0.384V2.3a0.577,0.577,0,0,1,.106-0.371A0.488,0.488,0,0,1,73.464,1.8ZM83.821,0.556h1.7v8.5h3.444v-8.9h1.7V23.682h-1.7V10.6H85.517V22.57h-1.7V0.556Z"/><path d="M105.543,16.663l7.126-.053q0.661,0,1.8-.066t2.437-.146q1.3-.105,2.623-0.238t2.358-.292v1.457q-2.7.4-6.225,0.609t-7.444.212h-2.675V16.663ZM112.96,1.007a6.5,6.5,0,0,1,2.424.437,5.752,5.752,0,0,1,1.894,1.205,5.357,5.357,0,0,1,1.232,1.828,5.923,5.923,0,0,1,.437,2.278,6.06,6.06,0,0,1-.437,2.331,5.076,5.076,0,0,1-1.232,1.8,5.394,5.394,0,0,1-1.907,1.179,6.988,6.988,0,0,1-2.437.411,6.664,6.664,0,0,1-2.477-.437,5.538,5.538,0,0,1-1.894-1.232,5.392,5.392,0,0,1-1.192-1.815,5.907,5.907,0,0,1-.424-2.238,5.982,5.982,0,0,1,.424-2.265,5.494,5.494,0,0,1,1.219-1.841,5.43,5.43,0,0,1,1.881-1.205A6.755,6.755,0,0,1,112.96,1.007ZM112.934,2.49a3.979,3.979,0,0,0-3.152,1.232A4.385,4.385,0,0,0,108.7,6.729a4.519,4.519,0,0,0,1.086,3.06,3.936,3.936,0,0,0,3.152,1.258,4.06,4.06,0,0,0,3.192-1.258,4.426,4.426,0,0,0,1.126-3.06,4.3,4.3,0,0,0-1.126-3.007A4.106,4.106,0,0,0,112.934,2.49Zm9.722-2.331h1.7V23.682h-1.7V0.159Z"/><path d="M156.537,15.259H178.1v1.4h-9.8v7.046H166.55V16.663H156.537v-1.4ZM158.5,3.576h17.59V5.033H158.5V3.576Zm8.742,2.967a12.414,12.414,0,0,1,5.483.94,2.817,2.817,0,0,1,1.828,2.5,2.766,2.766,0,0,1-1.828,2.477,16.905,16.905,0,0,1-10.967,0,2.766,2.766,0,0,1-1.828-2.477,2.817,2.817,0,0,1,1.828-2.5A12.415,12.415,0,0,1,167.239,6.543Zm0,1.324a10.889,10.889,0,0,0-4.133.57,1.741,1.741,0,0,0-1.271,1.523,1.741,1.741,0,0,0,1.271,1.524,15.287,15.287,0,0,0,8.265,0,1.741,1.741,0,0,0,1.272-1.524,1.741,1.741,0,0,0-1.272-1.523A10.888,10.888,0,0,0,167.239,7.868Zm-4.5-7.55h9.086V1.775h-9.086V0.318Z"/><path d="M193.279,13.06V1.325h1.616V5.669h12.212V1.325h1.669V13.06a0.561,0.561,0,0,1-.106.411,0.621,0.621,0,0,1-.4.093h-6.464V19.02h10.039v1.431H190.179V19.02h9.96V13.563h-6.384a0.557,0.557,0,0,1-.4-0.093A0.7,0.7,0,0,1,193.279,13.06Zm1.616-6.04v5.139h12.212V7.02H194.894Z"/><path d="M223.927,11.152H245.49V12.5H223.927V11.152ZM241.808,0.715a0.493,0.493,0,0,1,.384.133,0.534,0.534,0,0,1,.12.371V5.06a0.526,0.526,0,0,1-.12.384,0.527,0.527,0,0,1-.384.119H228.563V7.788h14.331V9.112h-15.47a0.518,0.518,0,0,1-.4-0.119,0.569,0.569,0,0,1-.106-0.384V4.742a0.581,0.581,0,0,1,.106-0.371,0.488,0.488,0,0,1,.4-0.133h13.192V2.04h-13.7V0.715h14.888Zm0.212,18.993h-13.4v2.358h14.437v1.324H227.424a0.41,0.41,0,0,1-.5-0.5v-4a0.57,0.57,0,0,1,.106-0.384,0.518,0.518,0,0,1,.4-0.119H240.8V16.053H226.921V14.729h15.1a0.432,0.432,0,0,1,.5.5v3.973a0.522,0.522,0,0,1-.119.4A0.572,0.572,0,0,1,242.02,19.709Z"/><path d="M282.576,0.451a6.513,6.513,0,0,1,2.384.424,5.254,5.254,0,0,1,1.827,1.166A5.188,5.188,0,0,1,287.98,3.8,5.783,5.783,0,0,1,288.4,6.04a5.27,5.27,0,0,1-1.616,4,5.9,5.9,0,0,1-4.238,1.537,6.652,6.652,0,0,1-2.437-.424,5.233,5.233,0,0,1-1.828-1.166,4.877,4.877,0,0,1-1.165-1.761,5.96,5.96,0,0,1-.4-2.185,5.968,5.968,0,0,1,.411-2.225,5.2,5.2,0,0,1,1.152-1.775A5.534,5.534,0,0,1,280.139.874,6.656,6.656,0,0,1,282.576.451Zm-0.027,1.43a3.878,3.878,0,0,0-3.1,1.192,4.331,4.331,0,0,0-1.034,2.94,4.333,4.333,0,0,0,1.034,2.94,3.88,3.88,0,0,0,3.1,1.192,3.938,3.938,0,0,0,3.086-1.192,4.234,4.234,0,0,0,1.074-2.94,4.232,4.232,0,0,0-1.074-2.94A3.936,3.936,0,0,0,282.549,1.881Zm11.6,11.761a0.432,0.432,0,0,1,.5.5v4.583a0.523,0.523,0,0,1-.119.4,0.573,0.573,0,0,1-.385.106H281.728v2.781h13.51v1.378h-14.7a0.411,0.411,0,0,1-.5-0.5V18.3a0.567,0.567,0,0,1,.107-0.384,0.517,0.517,0,0,1,.4-0.12h12.4V15.073h-12.9V13.642h14.119ZM292.96,0.159h1.67V4.927h3.337V6.384h-3.337V12.4h-1.67V0.159Z"/><path d="M316.113,0.742a4.736,4.736,0,0,1,4.027,2.225Q321.7,5.192,321.7,9.643q0,4.477-1.563,6.688a4.77,4.77,0,0,1-8.053,0q-1.563-2.211-1.563-6.688,0-4.451,1.563-6.676A4.734,4.734,0,0,1,316.113.742Zm0,1.457a3.212,3.212,0,0,0-2.888,2.026,11.751,11.751,0,0,0-1.06,5.417,11.734,11.734,0,0,0,1.06,5.43,3.078,3.078,0,0,0,5.775,0,11.734,11.734,0,0,0,1.06-5.43,12.08,12.08,0,0,0-1.072-5.417A3.186,3.186,0,0,0,316.113,2.2Zm10.119-2.04h1.748V8.61h3.656v1.483H327.98V23.709h-1.748V0.159Z"/><path d="M346.258,9.139V0.424h1.59V3.47h12.4V0.424h1.643V9.139a0.56,0.56,0,0,1-.106.41,0.62,0.62,0,0,1-.4.093h-6.49v3.232h9.96v1.4H343.291v-1.4h9.96V9.643h-6.517a0.553,0.553,0,0,1-.4-0.093A0.7,0.7,0,0,1,346.258,9.139Zm0.53,14.039a0.41,0.41,0,0,1-.5-0.5v-6.41h1.563v5.483h14.914v1.43H346.788Zm1.06-18.331v3.39h12.4V4.848h-12.4Z"/><path d="M379.212,17.457a0.52,0.52,0,0,1-.4-0.119,0.574,0.574,0,0,1-.106-0.384V2.093a0.583,0.583,0,0,1,.106-0.371,0.488,0.488,0,0,1,.4-0.133h10.146V3.02h-8.981V15.947l2.993-.026q1.431,0,2.875-.12t2.715-.278q1.245-.158,2.225-0.331t1.457-.278v1.51q-0.849.159-1.974,0.344t-2.344.344q-1.245.159-2.45,0.252t-2.186.093h-4.476Zm14.41-17.3h1.748V8.424H399V9.907h-3.629v13.8h-1.748V0.159Z"/><path d="M27.318,48.255l0.2,11.868h-1.6Q22.509,49.449,13.88,49.448q-4.775,0-7.418,2.643A7.767,7.767,0,0,0,3.82,57.565a5.631,5.631,0,0,0,2.2,4.468q2.2,1.842,8.032,2.848a35.825,35.825,0,0,1,8.884,2.456,12.336,12.336,0,0,1,5.15,4.826,14.366,14.366,0,0,1,2.1,7.742A15.332,15.332,0,0,1,25.8,91.09a14.606,14.606,0,0,1-10.862,4.468A17.545,17.545,0,0,1,4.4,91.635L1.194,94.5H0V81.711H1.466a19.6,19.6,0,0,0,5.627,9.072,12.039,12.039,0,0,0,7.912,3.035A12.349,12.349,0,0,0,22.833,91,8.7,8.7,0,0,0,26.4,83.894a8.275,8.275,0,0,0-2.473-6.088q-2.473-2.473-8.015-3.41A40.479,40.479,0,0,1,7.4,72.213a11.627,11.627,0,0,1-5.082-4.331A11.828,11.828,0,0,1,.2,61.044a13.432,13.432,0,0,1,3.683-9.259,12.8,12.8,0,0,1,9.993-4.075,16.371,16.371,0,0,1,9.856,3.342,12.151,12.151,0,0,0,2.183-2.8h1.4Z" fill="#000006"/><path d="M74.252,50.506V95.557h-1.4L42.739,50.3H42.6v42.46h7.742V94.5H34.077V92.761h6.787V50.506H33.6V48.766H51.061L72.376,80.824h0.136V50.506H64.941V48.766H81.175v1.739H74.252Z" fill="#000006"/><path d="M124.076,50.506h-7.469V48.766h16.336v1.739h-7.2V78.164a31.867,31.867,0,0,1-.9,8.867,9.954,9.954,0,0,1-3.291,4.809,15.06,15.06,0,0,1-5.712,2.831,26.556,26.556,0,0,1-6.872.887q-7.5,0-10.982-2.353a9.593,9.593,0,0,1-4.28-5.8,42.436,42.436,0,0,1-.8-9.242V50.506H86.288V48.766h21.861v1.739h-7.2V77.38a57.826,57.826,0,0,0,.512,8.731,9.01,9.01,0,0,0,2.762,5.286q2.251,2.115,7.128,2.114a15.237,15.237,0,0,0,7.094-1.62,9.234,9.234,0,0,0,4.382-4.348q1.245-2.728,1.245-10.163V50.506Z" fill="#000006"/><path d="M188.789,48.255V61.828h-1.466q-2.387-12.38-12.345-12.38-5.354,0-7.81,4.195t-2.456,17.666q0,11.084,1.057,15.074a9.362,9.362,0,0,0,3.666,5.712,10.213,10.213,0,0,0,5.747,1.722,11.624,11.624,0,0,0,7.691-3.086q3.6-3.086,5.576-9.907h1.6L189.5,94.773h-1.4a8.927,8.927,0,0,0-2.455-3.683q-5.389,4.468-11.084,4.468-7.231,0-13.2-6.855A24.658,24.658,0,0,1,155.4,71.923a25.94,25.94,0,0,1,5.866-17.172q5.865-7.042,13.574-7.043a14.834,14.834,0,0,1,10.47,4.263,27.212,27.212,0,0,0,2.012-3.717h1.466Z"/><path d="M202.024,92.761V50.506h-7.2V48.766h22.577v1.739h-7.264V70.047h19.746V50.506h-7.128V48.766H245.2v1.739H238V92.761h7.2V94.5H222.759V92.761h7.128V71.787H210.141V92.761h7.264V94.5H194.828V92.761h7.2Z"/><path d="M269.338,95.557q-8.867,0-15.057-7.435t-6.19-15.893a24.936,24.936,0,0,1,6.5-17.342q6.5-7.179,15.091-7.179,8.083,0,14.494,7.3a24.848,24.848,0,0,1-.017,33.337Q277.728,95.557,269.338,95.557Zm0.136-46.109a13.233,13.233,0,0,0-6.736,1.722,9.032,9.032,0,0,0-4.058,5.985q-1.074,4.264-1.074,14.87a87.969,87.969,0,0,0,.614,11.7,13.563,13.563,0,0,0,3.121,7.23q2.507,2.865,7.861,2.865a13.947,13.947,0,0,0,6.565-1.739q3.291-1.739,4.3-6.838A88.5,88.5,0,0,0,281.07,69.57q0-9.583-1.245-13.233a9.3,9.3,0,0,0-3.99-5.269A12.285,12.285,0,0,0,269.475,49.448Z"/><path d="M300.713,92.761V50.506h-7.469V48.766h23.123v1.739h-7.537V92.761h7.537V94.5H293.244V92.761h7.469Z"/><path d="M352.738,48.255V61.828h-1.466q-2.387-12.38-12.346-12.38-5.354,0-7.81,4.195T328.66,71.309q0,11.084,1.057,15.074a9.364,9.364,0,0,0,3.666,5.712,10.214,10.214,0,0,0,5.747,1.722,11.623,11.623,0,0,0,7.691-3.086q3.6-3.086,5.576-9.907H354l-0.546,13.949h-1.4A8.923,8.923,0,0,0,349.6,91.09q-5.388,4.468-11.084,4.468-7.23,0-13.2-6.855a24.658,24.658,0,0,1-5.968-16.779,25.94,25.94,0,0,1,5.866-17.172q5.866-7.042,13.574-7.043a14.834,14.834,0,0,1,10.47,4.263,27.169,27.169,0,0,0,2.012-3.717h1.466Z"/><path d="M374.353,50.506v19.61h4.127a13.835,13.835,0,0,0,3.7-.426,5,5,0,0,0,2.728-2.3,12.047,12.047,0,0,0,1.381-5.866h1.773V80.893H386.29q-0.273-5.525-2.132-7.281t-5.678-1.756h-4.127V92.761h9.31q7.912,0,10.965-3.325t3.632-10.248H400L399.557,94.5h-40.55V92.761h7.264V50.506h-7.264V48.766h38.879l0.784,12.209h-1.739q-0.887-5.558-3.649-8.015t-9.208-2.456h-9.72Z"/></svg>