<?xml version="1.0" encoding="utf-8"?>
<!-- Generator: Adobe Illustrator 19.2.1, SVG Export Plug-In . SVG Version: 6.00 Build 0)  -->
<svg version="1.1" id="Layer_1" xmlns="http://www.w3.org/2000/svg" xmlns:xlink="http://www.w3.org/1999/xlink" x="0px" y="0px"
	 viewBox="0 0 192 48" style="enable-background:new 0 0 192 48;" xml:space="preserve">
<style type="text/css">
	.st0{fill:#FFFFFF;}
	.st1{fill:#666666;}
</style>
<rect x="54.9" y="18.7" class="st0" width="4.2" height="12.6"/>
<rect x="22.5" y="25" class="st0" width="8" height="8"/>
<g>
	<path class="st1" d="M3.5,29v18c0,0.6,0.4,1,1,1h32c0.6,0,1-0.4,1-1V29c0-9.4-7.6-17-17-17S3.5,19.6,3.5,29z M23.5,29
		c0-1.7,1.3-3,3-3s3,1.3,3,3s-1.3,3-3,3S23.5,30.7,23.5,29z"/>
	<path class="st1" d="M39.5,37.9l6.5-4.1c0.3-0.1,0.5-0.5,0.5-0.8s-0.2-0.6-0.5-0.8L39.5,28c0,0.4,0,0.7,0,1V37.9z"/>
	<path class="st1" d="M25.5,10.7c-0.2-4.8-4.1-8.7-9-8.7c-4.6,0-8.5,3.5-9,8.1c-3.4,0.4-6,3.4-6,6.9c0,1.6,0.6,3.2,1.6,4.4
		C6,14.7,12.7,10,20.5,10C22.2,10,23.9,10.3,25.5,10.7z"/>
</g>
<g>
	<path class="st1" d="M130.2,15.7c0.2-0.8,0.3-1.7,0.3-2.6c0-6.1-4.9-11-11-11c-1.2,0-2.5,0.2-3.6,0.6c-0.3,0.1-0.6,0.4-0.6,0.7
		c0,0.1,0,0.1,0,0.2c0,0.3,0.1,0.6,0.3,0.7c1.4,1.3,2.4,3,2.8,4.8C123.2,9.7,127.4,12.1,130.2,15.7z"/>
	<path class="st1" d="M110.8,9.9c-1.7-2.4-4.3-3.8-7.3-3.8c-1,0-2.1,0.2-3.1,0.6c-0.3,0.1-0.5,0.3-0.6,0.6c0,0.1,0,0.2,0,0.3
		c0,0.2,0.1,0.4,0.2,0.6c1.2,1.7,1.9,4.2,2.2,5.8C104.6,12.1,107.7,10.7,110.8,9.9z"/>
	<path class="st1" d="M133.5,25.1c0,2.5-0.6,4.9-1.7,7h3.7c3.9,0,7-3.1,7-7s-3.1-7-7-7h-3.7C132.9,20.2,133.5,22.6,133.5,25.1z"/>
	<path class="st1" d="M130.5,37.1c0-0.9-0.1-1.7-0.3-2.6c-2.8,3.5-7,6-11.9,6.5c-0.4,1.8-1.4,3.5-2.8,4.8c-0.2,0.2-0.3,0.5-0.3,0.7
		c0,0.1,0,0.1,0,0.2c0.1,0.3,0.3,0.6,0.6,0.7c1.2,0.4,2.4,0.6,3.6,0.6C125.6,48.1,130.5,43.2,130.5,37.1z"/>
	<path class="st1" d="M110.8,40.3c-3.1-0.8-6.2-2.3-8.7-4.1c-0.3,1.6-1,4.1-2.2,5.8c-0.1,0.2-0.2,0.4-0.2,0.6c0,0.1,0,0.2,0,0.3
		c0.1,0.3,0.3,0.5,0.6,0.6c1,0.4,2.1,0.6,3.1,0.6C106.5,44.1,109.1,42.7,110.8,40.3z"/>
	<path class="st1" d="M116.5,11.1c8.3,0,15,6.3,15,14s-6.7,14-15,14s-19-6.3-19-14S108.2,11.1,116.5,11.1z"/>
</g>
<g>
	<path class="st1" d="M169.9,13.8h-4l-4-4c0,0,0,8.2,0,10c0,3.3,2.7,6,6,6s6-2.7,6-6c0-1.8,0-10,0-10L169.9,13.8z"/>
	<path class="st1" d="M182.6,9l-1.6-1.2v2c0,3.5-2,6.5-5,8v2c0,4.4-3.6,8-8,8c-4.4,0-8-3.6-8-8v-2c-3-1.5-5-4.6-5-8v-2L153.4,9
		c-5.3,4-8.4,10.1-8.4,16.7c0,3.8,1.1,7.6,3.1,10.9l0.6,0.9l0.9-0.6c1.9-1.4,4.2-2.1,6.5-2.1c4.4,0,9.5,8.3,11.1,11.4l0.8,1.8
		l0.9-1.8c1.6-3.2,6.7-11.4,11.1-11.4c2.3,0,4.6,0.7,6.5,2.1l0.9,0.6l0.6-0.9c2-3.3,3.1-7.1,3.1-10.9C190.9,19.1,187.9,13,182.6,9z"
		/>
</g>
<g>
	<path class="st1" d="M84.5,29.6C85.4,31,86.6,32,88,32c4.3,0,7-4.1,7-7s-2.7-7-7-7c-1.4,0-2.6,1-3.5,2.4C82.4,10.3,73.6,2,64,2
		c-0.6,0-1,0.4-1,1v10c0,4,2.6,7.5,6.4,8.6c0.1,0,5.1,1.7,10.9,3.3c-5.8,1.7-10.8,3.3-10.9,3.3C65.6,29.5,63,32.9,63,37v10
		c0,0.6,0.4,1,1,1C73.6,48,82.4,39.7,84.5,29.6z"/>
	<path class="st1" d="M68.8,26.4c0,0,1.8-0.6,4.5-1.4c-2.7-0.8-4.5-1.4-4.5-1.4c-3.7-1.1-6.4-4-7.4-7.7C56.7,17.3,49,20.4,49,25
		c0,4.6,7.7,7.7,12.4,9.1C62.3,30.5,65.1,27.5,68.8,26.4z M55,20.7c1.1-0.7,2.5-1.3,4-1.9v12.4c-1.5-0.6-2.9-1.2-4-1.9V20.7z"/>
</g>
</svg>
