<svg xmlns="http://www.w3.org/2000/svg" viewBox="0 0 96 48"><title>social</title><path d="M18.063,46L18,26H10V18h8V13C18,5.577,22.6,2,29.218,2a61.448,61.448,0,0,1,6.692.342V10.1l-4.592,0c-3.6,0-4.3,1.711-4.3,4.222V18H37.5l-4,8H27.02V46H18.063Z" fill="#39579a"/><path d="M96,9.113a19.686,19.686,0,0,1-5.656,1.551,9.876,9.876,0,0,0,4.33-5.448,19.717,19.717,0,0,1-6.253,2.39,9.857,9.857,0,0,0-16.781,8.982A27.958,27.958,0,0,1,51.342,6.3a9.859,9.859,0,0,0,3.048,13.148,9.808,9.808,0,0,1-4.46-1.232c0,0.041,0,.082,0,0.124a9.854,9.854,0,0,0,7.9,9.656,9.873,9.873,0,0,1-4.447.169A9.858,9.858,0,0,0,62.579,35a19.759,19.759,0,0,1-12.23,4.215A20.048,20.048,0,0,1,48,39.08,27.874,27.874,0,0,0,63.1,43.5c18.114,0,28.019-15.006,28.019-28.019q0-.64-0.028-1.274A20.014,20.014,0,0,0,96,9.113Z" fill="#69ace0"/></svg>