<?xml version="1.0" standalone="no"?>
<!DOCTYPE svg PUBLIC "-//W3C//DTD SVG 20010904//EN"
 "http://www.w3.org/TR/2001/REC-SVG-20010904/DTD/svg10.dtd">
<svg version="1.0" xmlns="http://www.w3.org/2000/svg"
 width="784.000000pt" height="784.000000pt" viewBox="0 0 784.000000 784.000000"
 preserveAspectRatio="xMidYMid meet">
<metadata>
Created by potrace 1.11, written by Peter Selinger 2001-2013
</metadata>
<g transform="translate(0.000000,784.000000) scale(0.100000,-0.100000)"
fill="#000000" stroke="none">
<path d="M4078 7835 c-2 -2 -35 -6 -73 -9 -39 -3 -81 -8 -95 -11 -14 -3 -43
-7 -65 -10 -22 -2 -47 -6 -55 -8 -8 -2 -42 -9 -75 -16 -84 -18 -155 -37 -265
-74 -52 -17 -98 -30 -102 -29 -5 1 -8 -2 -8 -8 0 -5 -6 -10 -14 -10 -18 0
-160 -62 -164 -72 -2 -5 -9 -8 -16 -8 -42 0 -429 -238 -512 -315 -6 -5 -28
-23 -50 -40 -21 -16 -49 -40 -63 -53 -15 -12 -39 -34 -56 -48 -67 -59 -235
-225 -308 -306 -83 -92 -251 -299 -268 -330 -6 -11 -18 -28 -27 -38 -25 -28
-33 -39 -82 -115 -24 -38 -47 -72 -51 -75 -3 -3 -16 -23 -28 -45 -21 -40 -32
-57 -62 -105 -33 -51 -128 -240 -121 -240 4 0 2 -4 -3 -8 -10 -6 -65 -115 -65
-127 0 -3 -9 -24 -20 -48 -29 -63 -107 -264 -115 -297 -2 -8 -13 -44 -25 -80
-28 -87 -81 -284 -94 -350 -3 -14 -7 -36 -10 -50 -3 -14 -9 -41 -13 -60 -4
-19 -8 -37 -8 -40 -1 -3 -5 -27 -10 -55 -4 -27 -9 -59 -12 -70 -4 -22 -12 -74
-18 -120 -2 -16 -6 -48 -9 -70 -22 -170 -30 -332 -31 -610 0 -241 7 -423 20
-510 2 -16 7 -55 9 -85 3 -30 8 -71 11 -90 14 -93 28 -177 32 -195 2 -11 8
-44 13 -73 5 -30 12 -62 15 -72 6 -19 13 -47 21 -90 3 -14 9 -39 15 -56 5 -17
11 -40 14 -50 2 -10 13 -50 25 -89 11 -38 22 -77 25 -85 2 -8 4 -15 5 -15 1 0
3 -7 5 -15 37 -142 251 -614 339 -747 19 -29 33 -53 31 -53 -3 0 78 -127 93
-145 4 -5 28 -39 52 -75 24 -36 46 -67 49 -70 3 -3 26 -32 51 -65 25 -33 47
-62 50 -65 3 -3 30 -34 60 -70 91 -108 120 -139 255 -275 122 -121 212 -204
281 -257 16 -12 31 -25 34 -29 7 -9 239 -179 244 -179 3 0 33 -19 68 -42 168
-112 583 -290 732 -315 11 -2 45 -10 75 -17 31 -8 78 -17 104 -21 27 -3 58 -8
70 -11 133 -25 580 -25 677 1 8 2 35 6 60 9 88 11 353 82 435 116 11 4 58 23
104 41 131 51 434 210 516 271 6 5 62 45 126 90 107 76 162 117 192 143 50 42
43 45 128 -46 120 -126 223 -284 284 -434 16 -38 31 -73 35 -78 7 -8 218 -13
226 -4 3 3 7 51 9 108 2 57 7 174 10 259 3 85 8 200 10 255 2 55 7 177 10 270
4 94 8 208 10 255 2 47 7 150 10 230 11 292 15 398 21 535 3 77 7 192 7 255
l2 115 -127 0 c-127 0 -128 0 -137 -25 -5 -14 -33 -99 -62 -190 -29 -91 -58
-176 -65 -190 -6 -14 -31 -74 -55 -135 -44 -112 -175 -381 -229 -470 -16 -27
-33 -57 -37 -65 -3 -8 -9 -17 -13 -20 -3 -3 -21 -29 -39 -58 -51 -81 -147
-205 -221 -286 -85 -94 -162 -167 -267 -251 -7 -5 -18 -15 -26 -21 -67 -56
-371 -244 -393 -244 -2 0 -32 -13 -66 -29 -35 -15 -88 -36 -118 -45 -30 -10
-64 -21 -75 -26 -11 -5 -33 -12 -50 -16 -16 -4 -34 -8 -40 -10 -5 -1 -21 -4
-35 -7 -14 -3 -36 -8 -50 -11 -166 -38 -428 -39 -642 -2 -65 11 -176 40 -200
52 -16 8 -28 12 -28 9 0 -3 -15 1 -34 9 -19 8 -37 12 -40 8 -3 -3 -6 0 -6 6 0
7 -6 12 -14 12 -19 0 -187 83 -252 125 -30 19 -56 35 -59 35 -6 0 -30 19 -119
96 -121 104 -235 252 -314 409 -38 75 -74 154 -76 165 -1 3 -13 39 -28 80 -44
125 -76 239 -83 295 -1 6 -7 35 -13 65 -24 113 -33 172 -48 308 -3 29 -7 62
-9 73 -2 10 -7 56 -10 102 -3 45 -8 98 -11 117 -10 75 -30 397 -38 639 -3 67
-7 125 -10 128 -3 3 -1 13 4 23 5 10 7 20 3 23 -3 4 -7 78 -9 164 -5 221 -5
1174 0 1313 5 137 17 407 21 470 13 197 16 251 20 290 3 25 7 72 10 105 3 33
7 76 10 95 13 108 16 138 19 170 4 41 16 125 22 160 2 14 7 43 10 65 3 22 8
51 10 65 3 14 9 48 14 75 7 41 22 110 45 215 26 118 93 331 131 415 10 22 18
42 19 45 6 22 41 90 47 90 5 0 8 7 8 15 0 9 5 21 10 28 6 7 31 44 57 82 109
165 275 324 418 402 22 11 56 30 75 40 34 19 189 81 220 89 8 2 39 10 68 18
29 8 55 15 57 15 3 1 6 1 8 2 1 0 17 2 36 5 19 2 46 6 60 9 148 28 475 23 651
-11 14 -3 38 -7 55 -9 62 -9 140 -28 149 -37 6 -4 19 -8 30 -8 51 0 426 -169
426 -192 0 -4 5 -8 10 -8 24 0 223 -160 298 -240 51 -53 94 -104 122 -140 14
-19 34 -45 46 -59 130 -159 327 -569 399 -831 3 -8 14 -49 26 -90 12 -41 37
-142 56 -225 20 -82 37 -152 39 -154 8 -9 226 -6 232 3 3 6 6 506 6 1113 l1
1103 -120 0 -121 0 -46 -97 c-86 -179 -270 -503 -286 -503 -4 0 -25 16 -47 35
-61 54 -214 176 -271 217 -104 73 -390 234 -434 244 -8 1 -64 24 -85 34 -45
21 -221 75 -315 96 -107 25 -141 31 -210 39 -25 3 -61 8 -80 11 -38 6 -456 14
-462 9z"/>
</g>
</svg>
